# xmcd
#
# Track frame offsets:
#	150
#	19964
#	29096
#	41430
#	53577
#	70638
#	79876
#	93020
#	102288
#	115339
#	133283
#	146488
#	160180
#	178356
#	190873
#	201177
#	217471
#	230386
#	242087
#	259027
#	278280
#	291901
#	305925
#	320812
#	334110
#	345465
#
# Disc length: 4769 seconds
#
# Revision: 0
# Processed by: cddbd v1.5.2PL0 Copyright (c) Steve Scherf et al.
# Submitted via: EZCDAudioConverter 1.3.4.1
#
DISCID=8f129f1a
DTITLE=Scared To Get Happy 1/5
DYEAR=1900
DGENRE=
TTITLE0=The Wild Swans - Revolutionary Spirit
TTITLE1=Girls At Our Best - Getting Nowhere Fast
TTITLE2=Art Objects - Showing Off To Impress The Girls
TTITLE3=The Pale Fountains - (There's Always) Something On My Mind
TTITLE4=Josef K - The Missionary
TTITLE5=The Monochrome Set - The Jet Set Junta
TTITLE6=Blue Orchids - Dumb Magician
TTITLE7=Marine Girls - Don't Come Back
TTITLE8=Fire Engines - Candyskin
TTITLE9=Tv21 - Ambition
TTITLE10=Dolly Mixture - Everything And More
TTITLE11=The Nightingales - Paraffin Brain
TTITLE12=Scars - All About You
TTITLE13=Jane - It's A Fine Day
TTITLE14=The Farmer's Boys - I Think I Need Help
TTITLE15=The Room - Things Have Learnt To Walk That Ought To Crawl
TTITLE16=Weekend - Summerdays
TTITLE17=Prefab Sprout - Lions In My Own Garden (Exit Someone)
TTITLE18=The Lines - Nerve Pylon
TTITLE19=Everything But The Girl - Feeling Dizzy
TTITLE20=The Higsons - The Lost And The Lonely
TTITLE21=Black - Human Features
TTITLE22=The Daintees - Roll On Summertime
TTITLE23=The Bluebells - Happy Birthday
TTITLE24=Trixie's Big Red Motorbike - Norman And Narcissus
TTITLE25=Tv Personalities - A Picture Of Dorian Gray [Live]
EXTD=
EXTT0=
EXTT1=
EXTT2=
EXTT3=
EXTT4=
EXTT5=
EXTT6=
EXTT7=
EXTT8=
EXTT9=
EXTT10=
EXTT11=
EXTT12=
EXTT13=
EXTT14=
EXTT15=
EXTT16=
EXTT17=
EXTT18=
EXTT19=
EXTT20=
EXTT21=
EXTT22=
EXTT23=
EXTT24=
EXTT25=
PLAYORDER=
